<svg height="100%" width="100%" id="svg" viewBox="0 0 1440 400" xmlns="http://www.w3.org/2000/svg" class="transition duration-300 ease-in-out delay-150"><defs><linearGradient id="gradient"><stop offset="5%" stop-color="#00d08488"></stop><stop offset="95%" stop-color="#9900ef88"></stop></linearGradient></defs><path d="M 0,400 C 0,400 0,133 0,133 C 28.775002653764716,121.2483770474357 57.55000530752943,109.49675409487138 97,113 C 136.44999469247057,116.50324590512862 186.574981423647,135.26136066795019 225,135 C 263.425018576353,134.73863933204981 290.1500689978826,115.45780323332787 330,116 C 369.8499310021174,116.54219676667213 422.8247425848227,136.9074263987384 457,128 C 491.1752574151773,119.09257360126159 506.5509606628266,80.91249117171857 540,94 C 573.4490393371734,107.08750882828143 624.9714147638708,171.44260891438742 668,169 C 711.0285852361292,166.55739108561258 745.5633802816901,97.31707317073172 778,89 C 810.4366197183099,80.68292682926828 840.7750641093687,133.2890984026857 874,140 C 907.2249358906313,146.7109015973143 943.3363632808353,107.52653321852537 980,112 C 1016.6636367191647,116.47346678147463 1053.87948276729,164.60476872321283 1098,164 C 1142.12051723271,163.39523127678717 1193.145705650005,114.05439188862339 1232,93 C 1270.854294349995,71.94560811137661 1297.537694632691,79.17766372229372 1334,90 C 1370.462305367309,100.82233627770628 1416.7035158192311,115.2349532222018 1436,123 C 1455.2964841807689,130.7650467777982 1447.6482420903844,131.8825233888991 1440,133 C 1440,133 1440,400 1440,400 Z" stroke="none" stroke-width="0" fill="url(#gradient)" class="transition-all duration-300 ease-in-out delay-150"></path><defs><linearGradient id="gradient"><stop offset="5%" stop-color="#00d084ff"></stop><stop offset="95%" stop-color="#9900efff"></stop></linearGradient></defs><path d="M 0,400 C 0,400 0,266 0,266 C 26.574298803141886,267.79277347505274 53.14859760628377,269.58554695010554 96,254 C 138.85140239371623,238.41445304989446 197.97990837800683,205.45058567463056 237,218 C 276.0200916219932,230.54941432536944 294.9317688816892,288.6121103513721 330,314 C 365.0682311183108,339.3878896486279 416.29301609523634,332.1009729198811 455,315 C 493.70698390476366,297.8990270801189 519.8961667373655,270.9839979691035 556,251 C 592.1038332626345,231.01600203089652 638.1223169553014,217.96303520370492 676,218 C 713.8776830446986,218.03696479629508 743.6145654414291,231.16386121607695 775,249 C 806.3854345585709,266.83613878392305 839.4194212789823,289.3815199319873 872,302 C 904.5805787210177,314.6184800680127 936.7077494426413,317.31005905597374 979,310 C 1021.2922505573587,302.68994094402626 1073.7495809504526,285.3782438441175 1112,272 C 1150.2504190495474,258.6217561558825 1174.293926755549,249.17696556755615 1213,244 C 1251.706073244451,238.82303443244385 1305.0747120273522,237.91389388565793 1344,240 C 1382.9252879726478,242.08610611434207 1407.4072251350422,247.167458889812 1421,252 C 1434.5927748649578,256.832541110188 1437.296387432479,261.416270555094 1440,266 C 1440,266 1440,400 1440,400 Z" stroke="none" stroke-width="0" fill="url(#gradient)" class="transition-all duration-300 ease-in-out delay-150"></path></svg>