<?xml version="1.0" encoding="utf-8"?><svg xmlns="http://www.w3.org/2000/svg" xmlns:xlink="http://www.w3.org/1999/xlink" width="1231" height="678" preserveAspectRatio="xMidYMid" viewBox="0 0 1231 678" style="z-index:1;display:block;background-color:rgb(255, 255, 255);animation-play-state:paused" ><g transform="translate(615.5,339) scale(1,1) translate(-615.5,-339)" style="animation-play-state:paused" ><linearGradient id="lg-0.27467052454684815" x1="0" x2="1" y1="0" y2="0" style="animation-play-state:paused" ><stop stop-color="#ff00ff" offset="0" style="animation-play-state:paused" ></stop>

  
<stop stop-color="#00ffff" offset="1" style="animation-play-state:paused" ></stop></linearGradient>
<path d="M0 0L0 591.755126953125Q123.0999984741211 587.8541870117188 246.1999969482422 556.2957153320312T492.3999938964844 562.125244140625T738.5999755859375 398.0062255859375T984.7999877929688 376.02703857421875T1231 283.6465759277344L1231 0z" fill="url(#lg-0.27467052454684815)" opacity="0.4" style="opacity:0.4;animation-play-state:paused" ></path>
<path d="M0 0L0 660.1640014648438Q123.0999984741211 602.8782958984375 246.1999969482422 569.9415283203125T492.3999938964844 512.3009033203125T738.5999755859375 434.9971008300781T984.7999877929688 419.5773620605469T1231 311.29034423828125L1231 0z" fill="url(#lg-0.27467052454684815)" opacity="0.4" style="opacity:0.4;animation-play-state:paused" ></path>
<path d="M0 0L0 641.0355834960938Q123.0999984741211 582.3755493164062 246.1999969482422 563.4315795898438T492.3999938964844 438.9320373535156T738.5999755859375 373.6065979003906T984.7999877929688 311.2395324707031T1231 303.62890625L1231 0z" fill="url(#lg-0.27467052454684815)" opacity="0.4" style="opacity:0.4;animation-play-state:paused" ></path>
<path d="M0 0L0 674.678955078125Q123.0999984741211 545.3040161132812 246.1999969482422 503.3449401855469T492.3999938964844 482.54266357421875T738.5999755859375 424.2978210449219T984.7999877929688 320.1773681640625T1231 292.0240173339844L1231 0z" fill="url(#lg-0.27467052454684815)" opacity="0.4" style="opacity:0.4;animation-play-state:paused" ></path>
<path d="M0 0L0 638.8561401367188Q123.0999984741211 569.0296020507812 246.1999969482422 541.7354125976562T492.3999938964844 458.8552551269531T738.5999755859375 399.1402587890625T984.7999877929688 356.217529296875T1231 299.3068542480469L1231 0z" fill="url(#lg-0.27467052454684815)" opacity="0.4" style="opacity:0.4;animation-play-state:paused" ></path></g></svg>