<?xml version="1.0" encoding="utf-8"?><svg xmlns="http://www.w3.org/2000/svg" xmlns:xlink="http://www.w3.org/1999/xlink" width="1410" height="470" preserveAspectRatio="xMidYMid" viewBox="0 0 1410 470" style="z-index:1;display:block;animation-play-state:paused" ><g transform="translate(705,235) scale(1,1) translate(-705,-235)" style="animation-play-state:paused" ><linearGradient id="lg-0.979942759977165" x1="0" x2="1" y1="0" y2="0" style="animation-play-state:paused" ><stop stop-color="#ff00ff" offset="0" style="animation-play-state:paused" ></stop>

  
<stop stop-color="#00ffff" offset="1" style="animation-play-state:paused" ></stop></linearGradient>
<path d="M0 0L0 485.3031311035156Q141 372.3233947753906 282 353.1112976074219T564 253.22805786132812T846 156.15699768066406T1128 110.34640502929688T1410 -20.774179458618164L1410 0z" fill="url(#lg-0.979942759977165)" opacity="0.4" style="opacity:0.4;animation-play-state:paused" ></path>
<path d="M0 0L0 485.10089111328125Q141 403.9788818359375 282 384.4773254394531T564 250.1622314453125T846 145.60047912597656T1128 78.54624938964844T1410 -12.695549964904785L1410 0z" fill="url(#lg-0.979942759977165)" opacity="0.4" style="opacity:0.4;animation-play-state:paused" ></path>
<path d="M0 0L0 481.98565673828125Q141 356.52435302734375 282 330.98052978515625T564 290.5182189941406T846 205.99717712402344T1128 88.41758728027344T1410 -10.647485733032227L1410 0z" fill="url(#lg-0.979942759977165)" opacity="0.4" style="opacity:0.4;animation-play-state:paused" ></path>
<path d="M0 0L0 438.6256103515625Q141 372.6946716308594 282 339.0000305175781T564 281.9067687988281T846 184.3317413330078T1128 142.38604736328125T1410 36.999671936035156L1410 0z" fill="url(#lg-0.979942759977165)" opacity="0.4" style="opacity:0.4;animation-play-state:paused" ></path></g></svg>